<svg width="906" height="647" viewBox="0 0 906 647" fill="none" xmlns="http://www.w3.org/2000/svg">
<g clip-path="url(#clip0)">
<path d="M70.6681 89.3494C91.6549 89.3494 108.668 72.3362 108.668 51.3494C108.668 30.3625 91.6549 13.3494 70.6681 13.3494C49.6813 13.3494 32.6681 30.3625 32.6681 51.3494C32.6681 72.3362 49.6813 89.3494 70.6681 89.3494Z" fill="#DC3545"/>
<path d="M305.608 620.255C335.836 632.778 367.93 640.206 400.587 642.237C415.887 643.19 431.475 643.237 446.696 641.215C460.033 639.444 473.58 635.809 484.698 627.946C495.81 619.95 503.633 608.183 506.706 594.843C510.106 580.782 508.675 566.05 503.819 552.506C498.808 538.486 490.885 525.685 480.572 514.945C471.326 505.483 458.376 496.875 444.528 498.495C431.217 500.053 421.536 510.813 417.991 523.263C413.741 538.188 418.631 553.977 425.262 567.415C436.511 590.208 454.564 609.34 475.944 622.943C497.452 636.713 522.178 644.636 547.683 645.932C573.239 647.083 600.725 641.157 620.861 624.645C631.466 616.027 639.039 604.245 642.474 591.019C646.049 577.06 645.114 562.318 642.02 548.364C635.303 518.072 617.56 492.033 607.286 463.037C604.739 455.962 602.778 448.689 601.423 441.292C601.085 439.395 598.193 440.199 598.53 442.09C603.843 471.918 620.657 497.601 631.693 525.379C641.746 550.682 647.73 581.747 632.838 606.453C619.441 628.677 592.835 639.51 568.022 642.275C543.76 644.979 518.922 640.632 496.68 630.693C474.293 620.688 454.231 605.104 439.677 585.305C431.766 574.544 424.951 562.355 421.457 549.405C417.88 536.15 418.719 521.134 428.18 510.428C432.356 505.555 438.171 502.378 444.528 501.495C451.132 500.669 457.746 502.519 463.551 505.604C476.014 512.228 485.288 523.741 492.444 535.648C499.837 547.948 505.046 561.891 505.563 576.345C506.043 589.783 502.517 603.56 494.439 614.438C477.761 636.896 446.416 639.622 420.691 639.794C389.161 639.99 357.806 635.098 327.833 625.307C320.589 622.94 313.446 620.292 306.405 617.362C304.624 616.623 303.847 619.524 305.607 620.255H305.608Z" fill="#697179"/>
<path d="M227.623 522.925L219.567 510.558C218.628 509.113 218.3 507.355 218.656 505.669C219.012 503.983 220.022 502.506 221.465 501.564L270.538 463.419C271.983 462.48 273.741 462.152 275.427 462.508C277.114 462.864 278.59 463.874 279.532 465.317L287.588 477.684C288.527 479.129 288.855 480.888 288.499 482.574C288.143 484.26 287.133 485.736 285.69 486.678L236.617 524.824C235.172 525.763 233.414 526.09 231.727 525.734C230.041 525.378 228.565 524.368 227.623 522.925V522.925Z" fill="#2F2E41"/>
<path d="M221.518 501.62L234.461 494.526C235.973 493.699 237.751 493.506 239.405 493.989C241.06 494.472 242.455 495.591 243.285 497.101L277.65 559.019C278.476 560.531 278.669 562.31 278.186 563.964C277.704 565.618 276.584 567.013 275.074 567.843L262.131 574.938C260.619 575.764 258.841 575.957 257.187 575.474C255.532 574.992 254.137 573.872 253.307 572.362L218.942 510.444C218.116 508.932 217.923 507.154 218.405 505.499C218.888 503.845 220.008 502.45 221.518 501.62V501.62Z" fill="#2F2E41"/>
<path d="M131.556 387.679C129.907 387.676 128.321 387.047 127.119 385.92C125.916 384.792 125.187 383.249 125.079 381.604L124.115 366.876C124.002 365.156 124.577 363.461 125.714 362.165C126.851 360.869 128.456 360.077 130.176 359.965L245.564 352.408C247.382 352.289 249.207 352.529 250.933 353.115C252.659 353.701 254.253 354.621 255.623 355.823C256.993 357.025 258.113 358.485 258.92 360.12C259.726 361.755 260.202 363.532 260.321 365.351C260.44 367.17 260.2 368.995 259.614 370.721C259.028 372.447 258.108 374.04 256.906 375.411C255.704 376.781 254.244 377.901 252.609 378.707C250.974 379.513 249.196 379.99 247.378 380.109L131.99 387.665C131.845 387.674 131.7 387.679 131.556 387.679Z" fill="#17A2B8"/>
<path d="M154.308 389.578C152.628 389.575 151.013 388.922 149.803 387.756C148.593 386.589 147.88 385 147.816 383.32L146.994 361.322C146.962 360.469 147.098 359.618 147.395 358.818C147.692 358.018 148.144 357.284 148.724 356.658C149.305 356.032 150.003 355.527 150.779 355.171C151.555 354.816 152.393 354.616 153.246 354.584L248.133 351.038C249.855 350.974 251.533 351.596 252.797 352.769C254.06 353.941 254.807 355.568 254.871 357.291L255.693 379.289C255.725 380.142 255.589 380.993 255.292 381.793C254.995 382.593 254.543 383.327 253.962 383.953C253.382 384.579 252.683 385.084 251.908 385.439C251.132 385.795 250.293 385.995 249.44 386.027L154.554 389.573C154.472 389.576 154.39 389.578 154.308 389.578Z" fill="#CCCCCC"/>
<path d="M306.668 622.157V574.417C306.668 532.744 288.487 492.779 256.046 466.621C231.798 447.069 196.677 432.449 146.364 435.716L165.531 359.049L6.10352e-05 472.307L162.046 585.566L145.493 513.255C145.493 513.255 246.554 494.088 306.668 622.157Z" fill="#343A40"/>
<path d="M190.903 546.696L178.966 538.016C177.573 537.001 176.64 535.475 176.371 533.773C176.102 532.071 176.519 530.331 177.531 528.937L249.873 429.442C250.888 428.049 252.414 427.116 254.116 426.847C255.818 426.578 257.557 426.995 258.952 428.007L270.89 436.687C272.283 437.702 273.216 439.228 273.485 440.93C273.754 442.632 273.336 444.372 272.325 445.767L199.983 545.261C198.968 546.654 197.442 547.587 195.74 547.856C194.038 548.125 192.298 547.708 190.903 546.696Z" fill="#2F2E41"/>
<path d="M177.6 528.97L187.161 517.725C188.279 516.414 189.871 515.599 191.589 515.46C193.307 515.321 195.009 515.869 196.323 516.984L250.514 562.571C251.825 563.689 252.64 565.281 252.779 566.999C252.918 568.716 252.37 570.419 251.255 571.733L241.694 582.978C240.577 584.289 238.984 585.104 237.267 585.243C235.549 585.382 233.846 584.834 232.532 583.719L178.341 538.132C177.03 537.014 176.215 535.422 176.076 533.704C175.937 531.987 176.485 530.284 177.6 528.97Z" fill="#2F2E41"/>
<path d="M243.083 327.966C271.249 327.966 294.083 305.132 294.083 276.966C294.083 248.799 271.249 225.966 243.083 225.966C214.916 225.966 192.083 248.799 192.083 276.966C192.083 305.132 214.916 327.966 243.083 327.966Z" fill="#17A2B8"/>
<path d="M220.648 299.429C218.922 299.465 217.208 299.131 215.621 298.449C214.55 297.941 213.603 297.205 212.846 296.292C212.09 295.379 211.542 294.312 211.241 293.165C211.012 292.353 210.973 291.499 211.129 290.67C211.285 289.841 211.63 289.059 212.138 288.385C213.47 286.676 215.769 285.863 218.475 286.071L211.778 267.322L213.661 266.649L221.535 288.691L219.76 288.288C217.702 287.822 215.032 287.925 213.715 289.614C213.396 290.051 213.182 290.555 213.09 291.087C212.998 291.62 213.029 292.166 213.182 292.684C213.411 293.537 213.821 294.33 214.383 295.011C214.946 295.691 215.649 296.242 216.444 296.626C219.227 297.883 222.485 297.436 226.147 296.772L226.504 298.74C224.576 299.144 222.617 299.375 220.648 299.429V299.429Z" fill="#2F2E41"/>
<path d="M202.538 271.002L191.996 273.216L192.407 275.173L202.949 272.959L202.538 271.002Z" fill="#2F2E41"/>
<path d="M235.811 264.011L225.27 266.225L225.681 268.182L236.222 265.968L235.811 264.011Z" fill="#2F2E41"/>
<path d="M285.668 495.849H199.668C197.415 495.847 195.254 494.951 193.66 493.357C192.067 491.764 191.171 489.603 191.168 487.349L209.172 349.285C209.187 347.042 210.088 344.895 211.68 343.315C213.272 341.734 215.425 340.848 217.668 340.849H248.188C260.379 340.863 272.066 345.712 280.686 354.332C289.306 362.952 294.154 374.639 294.168 386.829V487.349C294.166 489.603 293.269 491.764 291.676 493.357C290.082 494.951 287.922 495.847 285.668 495.849V495.849Z" fill="#CCCCCC"/>
<path d="M151.37 438.204C150.116 438.204 148.887 437.842 147.833 437.161C146.779 436.48 145.945 435.509 145.43 434.364L139.389 420.898C139.039 420.119 138.847 419.279 138.822 418.426C138.797 417.572 138.941 416.723 139.245 415.925C139.548 415.127 140.006 414.397 140.592 413.776C141.178 413.155 141.88 412.656 142.659 412.307L248.164 364.977C249.827 364.231 251.62 363.82 253.442 363.767C255.264 363.714 257.079 364.021 258.782 364.669C260.486 365.318 262.045 366.295 263.37 367.546C264.696 368.797 265.762 370.297 266.508 371.96C267.254 373.623 267.665 375.417 267.718 377.239C267.771 379.06 267.465 380.875 266.816 382.578C266.168 384.282 265.19 385.841 263.939 387.166C262.688 388.492 261.189 389.558 259.526 390.304L154.021 437.634C153.188 438.01 152.284 438.204 151.37 438.204V438.204Z" fill="#17A2B8"/>
<path d="M182.144 431.251C180.889 431.252 179.661 430.89 178.607 430.209C177.553 429.527 176.719 428.556 176.204 427.412L165.885 404.41C165.182 402.837 165.131 401.049 165.744 399.438C166.357 397.828 167.584 396.526 169.155 395.819L255.79 356.955C256.569 356.605 257.409 356.413 258.262 356.388C259.115 356.363 259.965 356.507 260.763 356.81C261.561 357.114 262.291 357.572 262.912 358.158C263.532 358.744 264.032 359.446 264.381 360.225L274.7 383.226C275.049 384.005 275.242 384.845 275.266 385.698C275.291 386.552 275.148 387.401 274.844 388.199C274.54 388.997 274.082 389.727 273.496 390.348C272.911 390.968 272.208 391.468 271.429 391.817L184.795 430.682C183.961 431.057 183.058 431.251 182.144 431.251V431.251Z" fill="#CCCCCC"/>
<path d="M231.767 244.99C223.463 241.931 216.638 249.99 209.113 251.835C201.915 253.6 194.16 249.447 190.315 243.395C185.829 236.334 186.941 227.167 191.021 220.197C195.49 212.562 203.449 207.878 211.885 205.832C221.553 203.487 231.626 204.64 241.168 207.022C250.32 209.165 259.193 212.36 267.611 216.542C275.221 220.481 282.434 225.869 286.881 233.332C290.923 240.114 292.923 248.555 290.923 256.326C289.821 260.337 287.705 263.997 284.778 266.952C281.765 270.141 278.314 272.905 275.505 276.288C271.258 281.402 268.404 289.783 272.591 295.833C273.499 297.157 274.719 298.237 276.142 298.979C277.853 299.87 279.371 297.282 277.656 296.389C274.645 294.82 273.551 291.637 273.632 288.391C273.794 284.707 275.203 281.188 277.626 278.409C280.569 274.873 284.206 272.011 287.312 268.631C290.317 265.482 292.517 261.652 293.724 257.469C295.932 249.379 294.205 240.567 290.298 233.279C286.069 225.391 278.982 219.435 271.268 215.107C262.874 210.396 253.544 207.239 244.282 204.732C234.343 202.042 223.906 200.527 213.678 202.389C204.812 204.003 196.148 208.283 190.572 215.525C185.368 222.284 182.882 231.498 185.398 239.816C186.593 243.582 188.769 246.962 191.704 249.608C194.639 252.253 198.225 254.069 202.095 254.868C206.029 255.592 210.091 255.062 213.709 253.353C217.605 251.607 221.145 248.892 225.29 247.731C227.149 247.163 229.143 247.216 230.97 247.883C232.784 248.551 233.566 245.653 231.767 244.99V244.99Z" fill="#2F2E41"/>
<path d="M598.668 448.189V400.449C598.668 358.776 616.85 318.811 649.291 292.653C673.538 273.102 708.659 258.482 758.972 261.749L739.805 185.082L905.336 298.34L743.29 411.598L759.843 339.287C759.843 339.287 658.782 320.12 598.668 448.189Z" fill="#343A40"/>
<path d="M688.645 209.336C686.509 207.612 684.932 205.293 684.113 202.673C683.295 200.053 683.272 197.248 684.047 194.615C684.823 191.982 686.362 189.637 688.469 187.878C690.577 186.119 693.159 185.025 695.889 184.734L810.869 172.456C812.583 172.275 814.299 172.782 815.639 173.864C816.98 174.946 817.837 176.516 818.022 178.229L817.525 178.283L818.022 178.229L819.59 192.906C819.68 193.754 819.603 194.613 819.362 195.432C819.121 196.25 818.721 197.014 818.185 197.678C817.648 198.342 816.987 198.894 816.237 199.303C815.488 199.712 814.665 199.968 813.816 200.059L698.836 212.336C698.337 212.39 697.837 212.416 697.335 212.416C694.171 212.418 691.102 211.331 688.645 209.336V209.336Z" fill="#17A2B8"/>
<path d="M722.515 310.724V295.965C722.517 294.241 723.203 292.589 724.421 291.371C725.64 290.152 727.292 289.467 729.015 289.465H852.03C853.753 289.467 855.405 290.152 856.624 291.371C857.842 292.589 858.528 294.241 858.53 295.965V310.724C858.528 312.447 857.842 314.099 856.624 315.318C855.405 316.537 853.753 317.222 852.03 317.224H729.015C727.292 317.222 725.64 316.537 724.421 315.318C723.203 314.099 722.517 312.447 722.515 310.724Z" fill="#17A2B8"/>
<path d="M663.699 311.442C662.936 311.06 662.255 310.53 661.698 309.884C661.14 309.237 660.716 308.486 660.45 307.675L655.823 293.659C655.284 292.022 655.417 290.238 656.192 288.699C656.967 287.16 658.321 285.991 659.957 285.449L776.769 246.88C778.406 246.34 780.19 246.472 781.73 247.247C783.27 248.022 784.439 249.377 784.979 251.014L784.504 251.171L784.979 251.014L789.607 265.03C790.145 266.667 790.012 268.45 789.237 269.989C788.462 271.529 787.108 272.697 785.472 273.24L668.661 311.808C667.85 312.078 666.995 312.185 666.143 312.122C665.292 312.059 664.461 311.828 663.699 311.442V311.442Z" fill="#17A2B8"/>
<path d="M816.841 315.773L764.416 268.504C763.138 267.348 762.37 265.733 762.281 264.012C762.192 262.291 762.789 260.605 763.941 259.324L773.825 248.362C774.98 247.082 776.595 246.312 778.317 246.223C780.038 246.134 781.725 246.733 783.005 247.887L835.43 295.156C836.709 296.312 837.477 297.927 837.566 299.648C837.655 301.369 837.057 303.055 835.905 304.336L826.021 315.298C825.451 315.934 824.761 316.45 823.99 316.817C823.219 317.184 822.382 317.395 821.53 317.436C821.415 317.443 821.3 317.446 821.186 317.446C819.58 317.448 818.031 316.852 816.841 315.773V315.773Z" fill="#17A2B8"/>
<path d="M683.56 145.959C711.726 145.959 734.56 123.125 734.56 94.9586C734.56 66.792 711.726 43.9586 683.56 43.9586C655.393 43.9586 632.56 66.792 632.56 94.9586C632.56 123.125 655.393 145.959 683.56 145.959Z" fill="#17A2B8"/>
<path d="M623.87 297.361C620.301 291.265 618.421 284.328 618.421 277.264C618.421 270.2 620.301 263.264 623.87 257.167L677.93 163.532C678.501 162.543 679.321 161.723 680.309 161.152C681.298 160.582 682.418 160.282 683.559 160.282C684.7 160.282 685.821 160.582 686.81 161.152C687.798 161.723 688.618 162.543 689.189 163.532L772.429 307.708C773 308.696 773.3 309.817 773.3 310.958C773.3 312.099 773 313.22 772.429 314.208C771.859 315.196 771.038 316.017 770.05 316.587C769.062 317.158 767.941 317.458 766.8 317.458H658.679C651.615 317.5 644.667 315.661 638.55 312.129C632.432 308.597 627.365 303.5 623.87 297.361V297.361Z" fill="#CCCCCC"/>
<path d="M725.597 114.367C728.903 114.276 733.017 114.161 736.187 111.845C737.131 111.128 737.906 110.212 738.459 109.163C739.012 108.115 739.329 106.957 739.387 105.773C739.445 104.931 739.306 104.088 738.984 103.308C738.661 102.529 738.162 101.834 737.527 101.28C735.872 99.8802 733.454 99.5525 730.849 100.318L733.548 80.5926L731.566 80.3211L728.393 103.511L730.048 102.752C731.966 101.872 734.599 101.425 736.236 102.807C736.638 103.168 736.951 103.618 737.151 104.12C737.35 104.622 737.432 105.164 737.388 105.702C737.34 106.584 737.102 107.445 736.691 108.226C736.28 109.007 735.706 109.691 735.007 110.23C732.541 112.032 729.261 112.264 725.542 112.368L725.597 114.367Z" fill="#2F2E41"/>
<path d="M720.119 82.2938H709.347V84.2938H720.119V82.2938Z" fill="#2F2E41"/>
<path d="M653.321 34.8108C651.905 29.0224 649.279 23.5994 645.618 18.898C641.956 14.1966 637.341 10.3234 632.075 7.53286C626.675 4.75769 620.725 3.22011 614.656 3.03182C608.588 2.84353 602.554 4.00925 596.992 6.4443C591.296 8.88415 586.238 12.6009 582.207 17.3074C578.177 22.0139 575.283 27.5841 573.748 33.5874C572.169 39.6268 571.95 45.9417 573.108 52.076C574.53 58.5731 577.288 64.7036 581.206 70.0777C585.157 75.7986 589.802 80.9905 594.066 86.4718C598.346 91.9644 602.244 97.7446 605.732 103.772C616.24 121.931 622.902 142.056 625.306 162.899C626.12 169.194 626.274 175.556 625.766 181.883C624.617 194.169 619.858 206.203 608.933 212.888C603.125 216.443 596.422 218.278 589.79 219.562C582.348 221.139 574.73 221.734 567.133 221.333C554.29 220.42 541.438 215.06 533.979 204.146C532.328 201.715 531.035 199.06 530.141 196.261C529.547 194.419 532.442 193.63 533.034 195.463C536.984 207.711 548.974 215.26 561.108 217.562C568.664 218.828 576.38 218.821 583.934 217.54C590.796 216.515 597.868 215.097 604.157 212.069C609.872 209.404 614.612 205.022 617.716 199.533C620.523 194.235 622.222 188.421 622.711 182.445C624.048 169.361 621.87 155.816 618.611 143.161C615.123 129.616 609.772 116.621 602.712 104.547C599.186 98.5145 595.238 92.7382 590.898 87.2613C586.6 81.8439 582.016 76.6345 578.14 70.8957C574.314 65.4822 571.619 59.3525 570.215 52.8734C569.021 46.6568 569.132 40.2599 570.541 34.0884C571.9 27.9977 574.56 22.2729 578.338 17.3063C582.117 12.3397 586.924 8.24871 592.432 5.31383C603.239 -0.387397 616.407 -1.75244 627.968 2.44858C639.187 6.58841 648.319 14.9885 653.379 25.8234C654.595 28.4516 655.545 31.1953 656.214 34.0133C656.656 35.891 653.764 36.6924 653.321 34.8108V34.8108Z" fill="#2F2E41"/>
<path d="M643.573 37.2496C641.693 31.8897 637.903 27.4108 632.928 24.6692C627.953 21.9275 622.143 21.1156 616.607 22.3884C614.729 22.8277 613.927 19.9358 615.809 19.4956C622.115 17.9487 628.773 18.8348 634.454 21.9775C640.136 25.1201 644.425 30.2883 646.466 36.4521C647.095 38.2817 644.198 39.0675 643.573 37.2496Z" fill="#2F2E41"/>
<path d="M643.116 48.0916C642.542 46.7513 642.522 45.2379 643.063 43.8836C643.603 42.5292 644.658 41.4443 645.997 40.867L659.778 34.9437C661.119 34.3677 662.633 34.3477 663.988 34.888C665.343 35.4284 666.427 36.4849 667.003 37.8251C667.579 39.1653 667.599 40.6794 667.059 42.0344C666.519 43.3893 665.462 44.4741 664.122 45.0501L650.341 50.9734C649.001 51.5493 647.486 51.5692 646.131 51.0288C644.777 50.4884 643.692 49.4318 643.116 48.0916V48.0916Z" fill="#2F2E41"/>
<path d="M677.036 329.17L662.324 327.975C660.607 327.834 659.016 327.017 657.9 325.704C656.784 324.39 656.235 322.688 656.372 320.97L665.729 205.715C665.876 203.898 666.38 202.127 667.211 200.504C668.042 198.882 669.185 197.439 670.574 196.258C671.963 195.077 673.571 194.181 675.306 193.622C677.042 193.062 678.87 192.85 680.687 192.998C682.505 193.146 684.275 193.65 685.897 194.482C687.52 195.314 688.962 196.457 690.143 197.847C691.323 199.236 692.218 200.845 692.777 202.58C693.335 204.316 693.546 206.145 693.398 207.962L684.04 323.217C683.908 324.842 683.17 326.359 681.972 327.466C680.774 328.573 679.203 329.188 677.572 329.191C677.394 329.191 677.215 329.184 677.036 329.17Z" fill="#17A2B8"/>
<path d="M12.9697 99.6853C7.71216 87.3942 14.919 71.3589 27.6009 67.1304C40.2829 62.9019 55.6709 71.4035 58.8418 84.3903C56.7917 79.3894 55.9297 73.981 56.3236 68.5905C56.7175 63.2001 58.3565 57.9745 61.1118 53.3247C63.8671 48.6749 67.6636 44.7277 72.2026 41.7934C76.7416 38.8592 81.8994 37.0179 87.2705 36.4145C92.6415 35.811 98.0793 36.4618 103.156 38.3156C108.233 40.1694 112.811 43.1757 116.529 47.0982C120.248 51.0206 123.006 55.7522 124.586 60.9209C126.166 66.0895 126.526 71.5543 125.637 76.8855C133.281 65.6154 149.685 61.3589 161.845 67.4899C174.005 73.621 180.336 89.3401 175.821 102.188L8.44446 101.889" fill="#F2F2F2"/>
<path d="M351.97 239.685C346.712 227.394 353.919 211.359 366.601 207.13C379.283 202.902 394.671 211.403 397.842 224.39C395.792 219.389 394.93 213.981 395.324 208.591C395.717 203.2 397.357 197.974 400.112 193.325C402.867 188.675 406.664 184.728 411.203 181.793C415.742 178.859 420.899 177.018 426.27 176.414C431.642 175.811 437.079 176.462 442.156 178.316C447.233 180.169 451.811 183.176 455.529 187.098C459.248 191.021 462.006 195.752 463.586 200.921C465.166 206.09 465.526 211.554 464.637 216.886C472.281 205.615 488.685 201.359 500.845 207.49C513.005 213.621 519.336 229.34 514.821 242.188L347.444 241.889" fill="#F2F2F2"/>
</g>
<defs>
<clipPath id="clip0">
<rect width="905.336" height="646.071" fill="white"/>
</clipPath>
</defs>
</svg>
